<svg width="1080" height="1080" viewBox="0 0 1080 1080" fill="none" xmlns="http://www.w3.org/2000/svg">
<g clip-path="url(#clip0_0_4)">
<rect width="1080" height="1080" fill="#b0b0b0"/>
<path d="M436.154 438.75H398H359H285.577H1.00497e-06C1.00497e-06 459.576 -2.78068e-06 460 4.34283e-06 488.077L1.00497e-06 537.404L423.173 534.808V545.192L1.00497e-06 542.596V591.923V597.115V643.846H295.962C340 643.846 398 643.846 436.154 643.846C436.154 679 436.154 741.176 436.154 784.038V1080H482.885L485.481 1061.83H488.077V1080H537.404L534.807 656.827H545.192L542.596 1080H591.923V1061.83H594.519V1080H641.25V786.634C641.25 739 641.25 687 641.25 643.846C675 643.846 714 643.846 750 643.846H955H1019H1080C1089.48 643.846 1086.02 640.219 1080 641.25C1080 584 1080 607.575 1080 597.115L1061.83 594.519V591.923H1080V542.596L656.827 545.192V534.808L1080 537.404V488.077H1061.83V485.481L1080 482.885V438.75H755.481H675H641.25V405V324.519V0L594.519 -2.86102e-06L591.923 0H542.596L545.192 423.173H534.807L537.404 0H488.077H482.885C472.425 0 436.154 -2.86102e-06 436.154 -2.86102e-06C436.154 -18.1731 436.154 29.4617 436.154 38.9423V119.423V332.308C436.154 364.549 436.154 409.162 436.154 438.75Z" fill="#59595B"/>
<path d="M485.481 36.3462L488.077 38.9423L485.481 36.3462ZM591.923 36.3462L594.519 38.9423L591.923 36.3462Z" fill="#CECDC3"/>
<path d="M485.481 122.019L488.077 124.615L485.481 122.019ZM591.923 122.019L594.519 124.615L591.923 122.019Z" fill="#CECDC3"/>
<path d="M485.481 197.308L488.077 199.904L485.481 197.308ZM591.923 197.308L594.519 199.904L591.923 197.308Z" fill="#CECDC3"/>
<path d="M595.384 253.558L596.251 255.288L595.384 253.558ZM594.519 262.212L597.115 264.808L594.519 262.212ZM595.384 269.135L596.251 270.865L595.384 269.135ZM595.384 282.116L596.251 283.845L595.384 282.116Z" fill="#949396"/>
<path d="M485.481 282.981L488.077 285.577L485.481 282.981ZM591.923 282.981L594.519 285.577L591.923 282.981Z" fill="#CECDC3"/>
<path d="M36.3462 485.481L38.9423 488.077L36.3462 485.481Z" fill="#CECDC3"/>
<path d="M122.019 485.481L124.615 488.077L122.019 485.481Z" fill="#CECDC3"/>
<path d="M197.308 485.481L199.904 488.077L197.308 485.481Z" fill="#CECDC3"/>
<path d="M282.981 485.481L285.577 488.077L282.981 485.481Z" fill="#CECDC3"/>
<path d="M794.423 485.481L797.019 488.077L794.423 485.481Z" fill="#CECDC3"/>
<path d="M880.096 485.481L882.692 488.077L880.096 485.481Z" fill="#CECDC3"/>
<path d="M955.385 485.481L957.981 488.077L955.385 485.481Z" fill="#CECDC3"/>
<path d="M1041.06 485.481L1043.65 488.077L1041.06 485.481Z" fill="#CECDC3"/>
<path d="M421.441 539.136L422.309 540.865L421.441 539.136ZM657.691 539.136L658.559 540.865L657.691 539.136Z" fill="#FEFEFE"/>
<path d="M707 535V545H1081V535H707Z" fill="#BC954E"/>
<path d="M0 535V545H374V535H0Z" fill="#BC954E"/>
<path d="M535 1079H545V705H535V1079Z" fill="#BC954E"/>
<path d="M535 374H545V0H535V374Z" fill="#BC954E"/>
<path d="M374.63 443.055V453.44H423.957V443.055H374.63ZM657.611 443.055V453.44H706.938V443.055H657.611Z" fill="white"/>
<path d="M636.071 705.449L625.687 705.431L625.772 656.104L636.157 656.122L636.071 705.449ZM636.561 422.469L626.176 422.451L626.262 373.124L636.646 373.142L636.561 422.469Z" fill="white"/>
<path d="M374 553V563.385H423.327V553H374ZM656.981 553V563.385H706.308V553H656.981Z" fill="white"/>
<path d="M374 571V581.385H423.327V571H374ZM656.981 571V581.385H706.308V571H656.981Z" fill="white"/>
<path d="M526.126 705.889L515.741 705.871L515.827 656.544L526.211 656.562L526.126 705.889ZM526.616 422.909L516.231 422.891L516.316 373.564L526.701 373.582L526.616 422.909Z" fill="white"/>
<path d="M374.63 461.491V471.875H423.957V461.491H374.63ZM657.611 461.491V471.875H706.938V461.491H657.611Z" fill="white"/>
<path d="M617.636 705.417L607.251 705.399L607.337 656.073L617.721 656.091L617.636 705.417ZM618.126 422.437L607.741 422.419L607.827 373.092L618.211 373.11L618.126 422.437Z" fill="white"/>
<path d="M506.635 705.855L496.25 705.837L496.336 656.51L506.72 656.528L506.635 705.855ZM507.125 422.875L496.74 422.857L496.826 373.53L507.21 373.548L507.125 422.875Z" fill="white"/>
<path d="M374.63 478.926V489.311H423.957V478.926H374.63ZM657.611 478.926V489.311H706.938V478.926H657.611Z" fill="white"/>
<path d="M600.201 705.387L589.816 705.369L589.901 656.042L600.286 656.06L600.201 705.387ZM600.69 422.407L590.306 422.389L590.391 373.062L600.776 373.08L600.69 422.407Z" fill="white"/>
<path d="M374 588.871V599.255H423.327V588.871H374ZM656.981 588.871V599.255H706.308V588.871H656.981Z" fill="white"/>
<path d="M490.255 705.827L479.871 705.809L479.956 656.482L490.341 656.5L490.255 705.827ZM490.745 422.847L480.36 422.829L480.446 373.502L490.83 373.52L490.745 422.847Z" fill="white"/>
<path d="M374.63 496.361V506.746H423.957V496.361H374.63ZM657.611 496.361V506.746H706.938V496.361H657.611Z" fill="white"/>
<path d="M582.765 705.357L572.381 705.339L572.466 656.012L582.851 656.03L582.765 705.357ZM583.255 422.377L572.871 422.359L572.956 373.032L583.341 373.05L583.255 422.377Z" fill="white"/>
<path d="M374 606.306V616.691H423.327V606.306H374ZM656.981 606.306V616.691H706.308V606.306H656.981Z" fill="white"/>
<path d="M472.82 705.797L462.435 705.779L462.521 656.452L472.905 656.47L472.82 705.797ZM473.31 422.816L462.925 422.798L463.01 373.471L473.395 373.489L473.31 422.816Z" fill="white"/>
<path d="M374.63 514.797V525.181H423.957V514.797H374.63ZM657.611 514.797V525.181H706.938V514.797H657.611Z" fill="white"/>
<path d="M564.33 705.325L553.945 705.307L554.031 655.98L564.415 655.998L564.33 705.325ZM564.82 422.345L554.435 422.327L554.521 373L564.905 373.018L564.82 422.345Z" fill="white"/>
<path d="M374 624.741V635.126H423.327V624.741H374ZM656.981 624.741V635.126H706.308V624.741H656.981Z" fill="white"/>
<path d="M454.385 705.765L444 705.747L444.085 656.42L454.47 656.438L454.385 705.765ZM454.874 422.784L444.49 422.766L444.575 373.44L454.96 373.458L454.874 422.784Z" fill="white"/>
<path d="M421.441 557.309L422.309 559.038L421.441 557.309ZM657.691 557.309L658.559 559.038L657.691 557.309Z" fill="#FEFEFE"/>
<path d="M421.441 575.482L422.309 577.211L421.441 575.482Z" fill="#FEFEFE"/>
<path d="M36.3462 591.923L38.9423 594.519L36.3462 591.923Z" fill="#CECDC3"/>
<path d="M122.019 591.923L124.615 594.519L122.019 591.923Z" fill="#CECDC3"/>
<path d="M197.308 591.923L199.904 594.519L197.308 591.923Z" fill="#CECDC3"/>
<path d="M282.981 591.923L285.577 594.519L282.981 591.923Z" fill="#CECDC3"/>
<path d="M794.423 591.923L797.019 594.519L794.423 591.923Z" fill="#CECDC3"/>
<path d="M880.096 591.923L882.692 594.519L880.096 591.923Z" fill="#CECDC3"/>
<path d="M955.385 591.923L957.981 594.519L955.385 591.923Z" fill="#CECDC3"/>
<path d="M1041.06 591.923L1043.65 594.519L1041.06 591.923Z" fill="#CECDC3"/>
<path d="M-1 645.5H-1.5V646V648.147V648.647H-1H315.674H396.14H429.384V676.061V742.625V1087V1087.5H429.884H432.479H432.979V1087V646V645.5H432.479H-1ZM645.326 645.5H644.826V646V1087V1087.5H645.326H647.921H648.421V1087V742.625V676.061V648.647H681.665H762.132H1078.81H1079.31V648.28C1079.33 648.264 1079.37 648.246 1079.41 648.224C1079.62 648.128 1079.96 648.027 1080.41 647.927C1081.3 647.727 1082.56 647.554 1083.98 647.403C1086.82 647.103 1090.22 646.902 1092.5 646.768L1092.53 646.766C1093.64 646.7 1094.5 646.649 1094.87 646.61C1094.92 646.605 1094.96 646.6 1095 646.594C1095.03 646.59 1095.09 646.58 1095.15 646.561C1095.17 646.555 1095.2 646.544 1095.23 646.526C1095.25 646.513 1095.33 646.473 1095.39 646.389C1095.48 646.283 1095.55 646.096 1095.46 645.892C1095.4 645.74 1095.29 645.668 1095.26 645.648C1095.18 645.603 1095.11 645.587 1095.09 645.583L1095.09 645.583C1095.06 645.577 1095.04 645.573 1095.02 645.57C1094.89 645.552 1094.6 645.542 1094.19 645.534C1092.47 645.5 1087.92 645.5 1078.83 645.5H1078.81H645.326Z" fill="#FF0000" stroke="#FF0000"/>
<path d="M1078 436.5H1078.5V436V433.853V433.353H1078L761.326 433.353H680.86H647.616V405.939V339.375L647.616 -5V-5.5H647.116H644.521H644.021V-5L644.021 436V436.5H644.521L1078 436.5ZM431.674 436.5H432.174V436L432.174 -5V-5.5H431.674H429.079H428.579V-5L428.579 339.375V405.939V433.353H395.335L314.868 433.353L-1.8053 433.353H-2.3053V433.72C-2.33105 433.736 -2.36633 433.754 -2.41345 433.776C-2.62305 433.872 -2.95581 433.973 -3.4082 434.073C-4.30481 434.273 -5.56299 434.446 -6.98218 434.597C-9.81506 434.897 -13.2191 435.098 -15.499 435.232L-15.5305 435.234C-16.6449 435.3 -17.5033 435.351 -17.8708 435.39C-17.9189 435.395 -17.964 435.4 -18.0031 435.406C-18.0314 435.41 -18.0912 435.42 -18.149 435.439C-18.166 435.445 -18.1953 435.456 -18.2289 435.474C-18.2537 435.487 -18.3284 435.527 -18.3936 435.611C-18.4766 435.717 -18.5457 435.904 -18.4639 436.108C-18.4026 436.26 -18.2885 436.332 -18.2556 436.352C-18.1816 436.397 -18.1104 436.413 -18.094 436.417L-18.0923 436.417C-18.0641 436.423 -18.0377 436.427 -18.0179 436.43C-17.8854 436.448 -17.6029 436.458 -17.1875 436.466C-15.4746 436.5 -10.9192 436.5 -1.8313 436.5H-1.8053L431.674 436.5Z" fill="#FF0000" stroke="#FF0000"/>
<path d="M446.538 662.019L454.327 659.423L446.538 662.019Z" fill="#FEFEFE"/>
<path d="M484.616 657.691L486.345 658.557L484.616 657.691Z" fill="#FEFEFE"/>
<path d="M502.789 657.691L504.518 658.557L502.789 657.691Z" fill="#FEFEFE"/>
<path d="M520.962 657.691L522.691 658.557L520.962 657.691Z" fill="#FEFEFE"/>
<path d="M485.481 794.423L488.077 797.019L485.481 794.423ZM591.923 794.423L594.519 797.019L591.923 794.423Z" fill="#CECDC3"/>
<path d="M485.481 880.096L488.077 882.692L485.481 880.096ZM591.923 880.096L594.519 882.692L591.923 880.096Z" fill="#CECDC3"/>
<path d="M485.481 955.385L488.077 957.981L485.481 955.385ZM591.923 955.385L594.519 957.981L591.923 955.385Z" fill="#CECDC3"/>
<path d="M485.481 1041.06L488.077 1043.65L485.481 1041.06ZM591.923 1041.06L594.519 1043.65L591.923 1041.06Z" fill="#CECDC3"/>
<rect x="1014" y="484" width="30" height="6" fill="white"/>
<rect x="282" y="483" width="30" height="6" fill="white"/>
<rect x="281" y="592" width="30" height="6" fill="white"/>
<rect x="592.015" y="1032" width="30" height="6" transform="rotate(-90 592.015 1032)" fill="white"/>
<rect x="592.015" y="313" width="30" height="6" transform="rotate(-90 592.015 313)" fill="white"/>
<rect x="482.015" y="1032" width="30" height="6" transform="rotate(-90 482.015 1032)" fill="white"/>
<rect x="482.015" y="312" width="30" height="6" transform="rotate(-90 482.015 312)" fill="white"/>
<rect x="1014" y="592" width="30" height="6" fill="white"/>
<rect x="1062" y="484" width="30" height="6" fill="white"/>
<rect x="330" y="483" width="30" height="6" fill="white"/>
<rect x="329" y="592" width="30" height="6" fill="white"/>
<rect x="592" y="1080" width="30" height="6" transform="rotate(-90 592 1080)" fill="white"/>
<rect x="592" y="361" width="30" height="6" transform="rotate(-90 592 361)" fill="white"/>
<rect x="482" y="1080" width="30" height="6" transform="rotate(-90 482 1080)" fill="white"/>
<rect x="482" y="360" width="30" height="6" transform="rotate(-90 482 360)" fill="white"/>
<rect x="1062" y="592" width="30" height="6" fill="white"/>
<rect x="899" y="484" width="30" height="6" fill="white"/>
<rect x="167" y="483" width="30" height="6" fill="white"/>
<rect x="166" y="592" width="30" height="6" fill="white"/>
<rect x="592.051" y="917" width="30" height="6" transform="rotate(-90 592.051 917)" fill="white"/>
<rect x="482.051" y="917" width="30" height="6" transform="rotate(-90 482.051 917)" fill="white"/>
<rect x="482.051" y="197" width="30" height="6" transform="rotate(-90 482.051 197)" fill="white"/>
<rect x="592" y="197" width="30" height="6" transform="rotate(-90 592 197)" fill="white"/>
<rect x="899" y="592" width="30" height="6" fill="white"/>
<rect x="787" y="484" width="30" height="6" fill="white"/>
<rect x="55" y="483" width="30" height="6" fill="white"/>
<rect x="54" y="592" width="30" height="6" fill="white"/>
<rect x="592.087" y="805" width="30" height="6" transform="rotate(-90 592.087 805)" fill="white"/>
<rect x="592.087" y="85" width="30" height="6" transform="rotate(-90 592.087 85)" fill="white"/>
<rect x="482.018" y="85" width="30" height="6" transform="rotate(-90 482.018 85)" fill="white"/>
<rect x="482.087" y="805" width="30" height="6" transform="rotate(-90 482.087 805)" fill="white"/>
<rect x="787" y="592" width="30" height="6" fill="white"/>
<rect x="957" y="484" width="30" height="6" fill="white"/>
<rect x="225" y="483" width="30" height="6" fill="white"/>
<rect x="224" y="592" width="30" height="6" fill="white"/>
<rect x="592.033" y="975" width="30" height="6" transform="rotate(-90 592.033 975)" fill="white"/>
<rect x="592.033" y="256" width="30" height="6" transform="rotate(-90 592.033 256)" fill="white"/>
<rect x="482.033" y="975" width="30" height="6" transform="rotate(-90 482.033 975)" fill="white"/>
<rect x="482.033" y="255" width="30" height="6" transform="rotate(-90 482.033 255)" fill="white"/>
<rect x="957" y="592" width="30" height="6" fill="white"/>
<rect x="844" y="484" width="30" height="6" fill="white"/>
<rect x="112" y="483" width="30" height="6" fill="white"/>
<rect x="111" y="592" width="30" height="6" fill="white"/>
<rect x="592.069" y="862" width="30" height="6" transform="rotate(-90 592.069 862)" fill="white"/>
<rect x="592.069" y="142" width="30" height="6" transform="rotate(-90 592.069 142)" fill="white"/>
<rect x="482" y="142" width="30" height="6" transform="rotate(-90 482 142)" fill="white"/>
<rect x="482.069" y="862" width="30" height="6" transform="rotate(-90 482.069 862)" fill="white"/>
<rect x="844" y="592" width="30" height="6" fill="white"/>
<rect x="732" y="484" width="30" height="6" fill="white"/>
<rect y="483" width="30" height="6" fill="white"/>
<rect y="592" width="30" height="6" fill="white"/>
<rect x="592.104" y="750" width="30" height="6" transform="rotate(-90 592.104 750)" fill="white"/>
<rect x="592" y="31" width="30" height="6" transform="rotate(-90 592 31)" fill="white"/>
<rect x="482.104" y="750" width="30" height="6" transform="rotate(-90 482.104 750)" fill="white"/>
<rect x="482.104" y="30" width="30" height="6" transform="rotate(-90 482.104 30)" fill="white"/>
<rect x="732" y="592" width="30" height="6" fill="white"/>
<rect x="1019" y="592" width="30" height="6" fill="white"/>
<rect x="1019" y="592" width="30" height="6" fill="white"/>
</g>
<defs>
<clipPath id="clip0_0_4">
<rect width="1080" height="1080" fill="white"/>
</clipPath>
</defs>
</svg>
